<svg width="30" height="25" viewBox="0 0 13 12" fill="none" xmlns="http://www.w3.org/2000/svg">
<path d="M8.9375 10.1925L7.88531 9.22125L7.3125 9.75L8.9375 11.25L12.1875 8.25L11.6147 7.72125L8.9375 10.1925Z" fill="#003862"/>
<path d="M6.09375 10.5H3.25V1.50001H6.5V3.75001C6.50064 3.94874 6.58645 4.13916 6.73869 4.27968C6.89092 4.4202 7.09721 4.49941 7.3125 4.50001H9.75V6.75001H10.5625V3.75001C10.5639 3.70072 10.5538 3.65174 10.5327 3.60642C10.5117 3.56111 10.4803 3.52054 10.4406 3.48751L7.59688 0.862505C7.56111 0.825885 7.51716 0.796862 7.46807 0.777439C7.41897 0.758017 7.3659 0.748657 7.3125 0.750005H3.25C3.03471 0.750599 2.82842 0.829807 2.67619 0.970331C2.52395 1.11085 2.43814 1.30128 2.4375 1.50001V10.5C2.43814 10.6987 2.52395 10.8892 2.67619 11.0297C2.82842 11.1702 3.03471 11.2494 3.25 11.25H6.09375V10.5ZM7.3125 1.65001L9.5875 3.75001H7.3125V1.65001Z" fill="#003862"/>
</svg>
