<svg width="32" height="30" viewBox="0 0 12 10" fill="none" xmlns="http://www.w3.org/2000/svg">
<path d="M3.84614 5.09468H3.56729C3.18677 5.08114 2.80747 5.14476 2.45295 5.28159C2.09843 5.41843 1.77625 5.62556 1.5064 5.89014L1.42947 5.97852V8.59216H2.73717V7.10857L2.91345 6.91286L2.99358 6.82132C3.41086 6.39913 3.93036 6.08846 4.50319 5.91854C4.2164 5.70362 3.99021 5.42001 3.84614 5.09468Z" fill="#003862"/>
<path d="M10.0449 5.88067C9.77502 5.6161 9.45284 5.40897 9.09832 5.27213C8.7438 5.1353 8.3645 5.07168 7.98398 5.08522C7.86727 5.08555 7.75066 5.09187 7.63462 5.10416C7.48785 5.40937 7.26784 5.6748 6.99359 5.87752C7.60512 6.04414 8.1591 6.37149 8.59616 6.82449L8.67628 6.91287L8.84936 7.10858V8.59532H10.1122V5.96906L10.0449 5.88067Z" fill="#003862"/>
<path d="M3.55768 4.47917H3.65704C3.61088 4.08878 3.68043 3.69358 3.85731 3.34126C4.03419 2.98894 4.31083 2.69458 4.65384 2.49369C4.5295 2.30662 4.35796 2.15455 4.15602 2.05239C3.95408 1.95022 3.72866 1.90146 3.50183 1.91087C3.275 1.92029 3.05455 1.98756 2.86205 2.10609C2.66955 2.22463 2.51161 2.39037 2.40369 2.58708C2.29578 2.78379 2.24158 3.00474 2.24642 3.22827C2.25126 3.45181 2.31496 3.67028 2.43129 3.86229C2.54762 4.05429 2.71259 4.21325 2.91004 4.32361C3.10749 4.43396 3.33065 4.49191 3.55768 4.4918V4.47917Z" fill="#003862"/>
<path d="M7.83013 4.24241C7.83402 4.31496 7.83402 4.38766 7.83013 4.46021C7.89163 4.46981 7.95376 4.47509 8.01602 4.47599H8.07692C8.30295 4.46412 8.52201 4.39481 8.71277 4.27482C8.90353 4.15482 9.05949 3.98822 9.16546 3.79124C9.27144 3.59426 9.32382 3.37362 9.31751 3.15078C9.3112 2.92795 9.2464 2.71052 9.12944 2.51966C9.01248 2.32881 8.84733 2.17104 8.65007 2.0617C8.45282 1.95237 8.23017 1.8952 8.00382 1.89576C7.77747 1.89632 7.55513 1.95459 7.35843 2.0649C7.16174 2.17521 6.9974 2.3338 6.88141 2.52523C7.1715 2.71177 7.41004 2.9663 7.57562 3.26601C7.7412 3.56571 7.82865 3.90121 7.83013 4.24241Z" fill="#003862"/>
<path d="M5.72755 5.65656C6.51881 5.65656 7.16025 5.02485 7.16025 4.24558C7.16025 3.46631 6.51881 2.83459 5.72755 2.83459C4.9363 2.83459 4.29486 3.46631 4.29486 4.24558C4.29486 5.02485 4.9363 5.65656 5.72755 5.65656Z" fill="#003862"/>
<path d="M5.8045 6.40786C5.38593 6.39121 4.96826 6.45814 4.57663 6.60461C4.185 6.75107 3.8275 6.97405 3.52565 7.26013L3.44553 7.34852V9.34662C3.44678 9.41171 3.46103 9.47591 3.48749 9.53557C3.51394 9.59522 3.55206 9.64916 3.59968 9.6943C3.64731 9.73944 3.70349 9.7749 3.76503 9.79866C3.82657 9.82241 3.89226 9.83399 3.95835 9.83273H7.64104C7.70712 9.83399 7.77281 9.82241 7.83435 9.79866C7.89589 9.7749 7.95208 9.73944 7.9997 9.6943C8.04732 9.64916 8.08545 9.59522 8.1119 9.53557C8.13835 9.47591 8.15261 9.41171 8.15386 9.34662V7.35483L8.07694 7.26013C7.77704 6.97317 7.42079 6.74956 7.03003 6.60301C6.63928 6.45646 6.22224 6.39005 5.8045 6.40786Z" fill="#003862"/>
</svg>
