<svg width="30" height="30" viewBox="0 0 14 14" fill="none" xmlns="http://www.w3.org/2000/svg">
<path d="M6.12908 8.24951C5.97333 8.24951 5.82108 8.2957 5.69157 8.38223C5.56207 8.46876 5.46113 8.59175 5.40153 8.73565C5.34192 8.87955 5.32633 9.03789 5.35672 9.19065C5.3871 9.34341 5.4621 9.48373 5.57224 9.59386C5.68237 9.70399 5.82269 9.779 5.97545 9.80938C6.12821 9.83977 6.28655 9.82417 6.43045 9.76457C6.57434 9.70496 6.69734 9.60403 6.78387 9.47452C6.8704 9.34502 6.91658 9.19277 6.91658 9.03701C6.91674 8.93355 6.89647 8.83108 6.85695 8.73547C6.81743 8.63985 6.75943 8.55298 6.68627 8.47982C6.61312 8.40667 6.52624 8.34867 6.43063 8.30914C6.33502 8.26962 6.23254 8.24936 6.12908 8.24951Z" fill="#003862"/>
<path d="M7.83333 1H3.16667C2.85812 1.00108 2.5626 1.12453 2.34497 1.34326C2.12734 1.56198 2.00537 1.85811 2.00583 2.16667L2 11.5C1.99954 11.8086 2.1215 12.1047 2.33913 12.3234C2.55677 12.5421 2.85228 12.6656 3.16083 12.6667H10.1667C10.4758 12.6657 10.772 12.5425 10.9906 12.3239C11.2092 12.1053 11.3324 11.8091 11.3333 11.5V4.5L7.83333 1ZM8.33675 9.7255L7.81175 10.6337C7.79528 10.6605 7.77016 10.6808 7.74056 10.6913C7.71095 10.7018 7.67865 10.7019 7.649 10.6915L6.99275 10.429C6.85768 10.5336 6.7094 10.6199 6.55175 10.6857L6.45258 11.3792C6.44688 11.4101 6.43059 11.438 6.40653 11.4581C6.38246 11.4782 6.35212 11.4893 6.32075 11.4895H5.27075C5.23917 11.49 5.20848 11.4791 5.18435 11.4587C5.16022 11.4383 5.14429 11.4099 5.1395 11.3787L5.04033 10.6862C4.87979 10.6224 4.7293 10.5358 4.5935 10.429L3.9425 10.6915C3.91287 10.7028 3.88019 10.7031 3.85036 10.6924C3.82052 10.6817 3.79548 10.6607 3.77975 10.6332L3.25475 9.7255C3.24009 9.69809 3.23522 9.6665 3.24095 9.63596C3.24668 9.60541 3.26266 9.57773 3.28625 9.5575L3.84275 9.12175C3.82177 8.95089 3.82177 8.77811 3.84275 8.60725L3.28625 8.1715C3.2616 8.15202 3.24483 8.12428 3.23904 8.0934C3.23325 8.06252 3.23883 8.03058 3.25475 8.0035L3.77975 7.09525C3.79616 7.06827 3.82134 7.04775 3.85108 7.03713C3.88081 7.02651 3.9133 7.02643 3.94308 7.03692L4.5935 7.29942C4.73114 7.19585 4.88102 7.10964 5.03975 7.04275L5.1395 6.34975C5.14507 6.31889 5.16122 6.29094 5.18517 6.27071C5.20913 6.25047 5.2394 6.23923 5.27075 6.23892H6.32075C6.35173 6.23856 6.38175 6.24969 6.40502 6.27015C6.42828 6.29062 6.44315 6.31897 6.44675 6.34975L6.5465 7.04275C6.70681 7.10643 6.8571 7.19287 6.99275 7.29942L7.64375 7.03692C7.67345 7.02549 7.70626 7.02509 7.73623 7.0358C7.7662 7.0465 7.79134 7.06759 7.80708 7.09525L8.33208 8.0035C8.34668 8.03097 8.35145 8.0626 8.34562 8.09315C8.33978 8.1237 8.32369 8.15134 8.3 8.1715L7.7435 8.60725C7.75848 8.69196 7.76551 8.77789 7.7645 8.86392C7.76297 8.95022 7.75595 9.03633 7.7435 9.12175L8.30525 9.5575C8.32884 9.57773 8.34482 9.60541 8.35055 9.63596C8.35628 9.6665 8.35141 9.69809 8.33675 9.7255ZM7.25 5.08333V1.875L10.4583 5.08333H7.25Z" fill="#003862"/>
</svg>
