<svg width="40" height="40" viewBox="0 0 16 12" fill="none" xmlns="http://www.w3.org/2000/svg">
<path d="M1.5759 11.625H0C1.8684e-08 10.3917 0.498095 9.209 1.38471 8.33695C2.27133 7.46491 3.47383 6.975 4.7277 6.975C5.98156 6.975 7.18407 7.46491 8.07069 8.33695C8.9573 9.209 9.4554 10.3917 9.4554 11.625H7.8795C7.8795 10.8028 7.54743 10.0143 6.95636 9.43297C6.36528 8.85161 5.56361 8.525 4.7277 8.525C3.89179 8.525 3.09012 8.85161 2.49904 9.43297C1.90796 10.0143 1.5759 10.8028 1.5759 11.625ZM14.4148 9.07215L12.6072 7.29507L10.8004 9.07215L9.68627 7.9763L11.4922 6.2L9.68627 4.42292L10.8004 3.32707L12.6072 5.10415L14.414 3.32707L15.5281 4.42292L13.7214 6.2L15.5281 7.97707L14.4148 9.07215ZM4.7277 6.2C3.89179 6.2 3.09012 5.87339 2.49904 5.29203C1.90796 4.71067 1.5759 3.92217 1.5759 3.1C1.5759 2.27783 1.90796 1.48933 2.49904 0.907969C3.09012 0.326606 3.89179 0 4.7277 0C5.56361 0 6.36528 0.326606 6.95636 0.907969C7.54743 1.48933 7.8795 2.27783 7.8795 3.1C7.8795 3.92217 7.54743 4.71067 6.95636 5.29203C6.36528 5.87339 5.56361 6.2 4.7277 6.2ZM4.7277 1.55C4.4191 1.55031 4.11739 1.63972 3.85999 1.80715C3.6026 1.97458 3.40084 2.21266 3.27976 2.49184C3.15868 2.77103 3.12361 3.07904 3.17888 3.37765C3.23416 3.67626 3.37736 3.95234 3.59072 4.17164C3.80408 4.39093 4.0782 4.54379 4.37908 4.61124C4.67996 4.67869 4.99435 4.65777 5.28325 4.55108C5.57215 4.44439 5.82285 4.25661 6.00423 4.01106C6.18562 3.7655 6.28971 3.47297 6.3036 3.16975V3.47975V3.1C6.3036 2.68891 6.13757 2.29467 5.84203 2.00398C5.54649 1.7133 5.14565 1.55 4.7277 1.55Z" fill="white"/>
</svg>
