<svg width="30" height="25" viewBox="0 0 13 12" fill="none" xmlns="http://www.w3.org/2000/svg">
<g clip-path="url(#clip0)">
<path d="M10.4406 4.4875L7.59688 1.8625C7.51563 1.7875 7.43437 1.75 7.3125 1.75H3.25C2.80312 1.75 2.4375 2.0875 2.4375 2.5V11.5C2.4375 11.9125 2.80312 12.25 3.25 12.25H9.75C10.1969 12.25 10.5625 11.9125 10.5625 11.5V4.75C10.5625 4.6375 10.5219 4.5625 10.4406 4.4875ZM7.3125 2.65L9.5875 4.75H7.3125V2.65ZM9.75 11.5H3.25V2.5H6.5V4.75C6.5 5.1625 6.86562 5.5 7.3125 5.5H9.75V11.5Z" fill="#003862"/>
<path d="M4.0625 9.25H8.9375V10H4.0625V9.25Z" fill="#003862"/>
<path d="M4.0625 7H8.9375V7.75H4.0625V7Z" fill="#003862"/>
</g>
<defs>
<clipPath id="clip0">
<rect width="13" height="12" fill="white"/>
</clipPath>
</defs>
</svg>
