<svg width="30" height="30" viewBox="0 0 10 10" fill="none" xmlns="http://www.w3.org/2000/svg">
<path d="M9.375 5.9375H8.125V4.6875H7.5V7.5H2.5V2.5H5.3125V1.875H4.0625V0.625H3.4375V1.875H2.5C2.33429 1.87517 2.17542 1.94107 2.05824 2.05824C1.94107 2.17542 1.87517 2.33429 1.875 2.5V3.4375H0.625V4.0625H1.875V5.9375H0.625V6.5625H1.875V7.5C1.87517 7.66571 1.94107 7.82458 2.05824 7.94176C2.17542 8.05893 2.33429 8.12483 2.5 8.125H3.4375V9.375H4.0625V8.125H5.9375V9.375H6.5625V8.125H7.5C7.66568 8.12475 7.82451 8.05882 7.94167 7.94167C8.05882 7.82451 8.12475 7.66568 8.125 7.5V6.5625H9.375V5.9375Z" fill="#003862"/>
<path d="M6.5625 6.5625H3.4375V3.4375H6.5625V6.5625ZM4.0625 5.9375H5.9375V4.0625H4.0625V5.9375Z" fill="#003862"/>
<path d="M9.6875 4.0625H9.0625C9.06151 3.234 8.73195 2.43972 8.14611 1.85389C7.56028 1.26805 6.766 0.938492 5.9375 0.9375V0.3125C6.93173 0.313575 7.88493 0.709009 8.58796 1.41204C9.29099 2.11507 9.68642 3.06827 9.6875 4.0625Z" fill="#003862"/>
<path d="M8.125 4.0625H7.5C7.4995 3.64825 7.33472 3.25111 7.04181 2.95819C6.74889 2.66528 6.35175 2.5005 5.9375 2.5V1.875C6.51746 1.87566 7.07347 2.10634 7.48357 2.51643C7.89366 2.92653 8.12434 3.48254 8.125 4.0625Z" fill="#003862"/>
</svg>
