<svg width="30" height="25" viewBox="0 0 12 12" fill="none" xmlns="http://www.w3.org/2000/svg">
<path d="M7.5 9H11.25V9.75H7.5V9Z" fill="#003862"/>
<path d="M6 10.5H3V1.50001H6V3.75001C6.00059 3.94874 6.0798 4.13916 6.22033 4.27968C6.36085 4.4202 6.55127 4.49941 6.75 4.50001H9V7.50001H9.75V3.75001C9.75132 3.70072 9.74195 3.65174 9.72253 3.60642C9.70311 3.56111 9.6741 3.52054 9.6375 3.48751L7.0125 0.862505C6.97949 0.825885 6.93892 0.796862 6.8936 0.777439C6.84828 0.758017 6.79929 0.748657 6.75 0.750005H3C2.80127 0.750599 2.61085 0.829807 2.47033 0.970331C2.3298 1.11085 2.25059 1.30128 2.25 1.50001V10.5C2.25059 10.6987 2.3298 10.8892 2.47033 11.0297C2.61085 11.1702 2.80127 11.2494 3 11.25H6V10.5ZM6.75 1.65001L8.85 3.75001H6.75V1.65001Z" fill="#003862"/>
</svg>
