<svg width="30" height="30" viewBox="0 0 17 17" fill="none" xmlns="http://www.w3.org/2000/svg">
<path d="M7.16364 4C6.53263 4 5.92746 4.24913 5.48127 4.69258C5.03508 5.13603 4.78442 5.73747 4.78442 6.36461C4.78442 6.99174 5.03508 7.59319 5.48127 8.03664C5.92746 8.48009 6.53263 8.72921 7.16364 8.72921C7.79464 8.72921 8.39981 8.48009 8.846 8.03664C9.29219 7.59319 9.54286 6.99174 9.54286 6.36461C9.54286 5.73747 9.29219 5.13603 8.846 4.69258C8.39981 4.24913 7.79464 4 7.16364 4ZM4.19496 9.32037C4.03831 9.31974 3.88308 9.34986 3.73817 9.40899C3.59325 9.46812 3.46151 9.5551 3.35049 9.66494C3.23948 9.77478 3.15137 9.90532 3.09122 10.0491C3.03108 10.1928 3.00008 10.347 3 10.5027C3 11.5023 3.49547 12.256 4.26991 12.7473C5.03245 13.2302 6.06027 13.4584 7.16364 13.4584C7.40751 13.4584 7.649 13.4472 7.88335 13.4247C7.41638 12.848 7.16237 12.1297 7.16364 11.3894C7.16364 10.6032 7.44438 9.88196 7.91131 9.32037H4.19556H4.19496ZM8.13614 11.0465C8.28974 11.0075 8.43393 10.9383 8.56025 10.8431C8.68657 10.7479 8.79246 10.6285 8.8717 10.492C8.95094 10.3556 9.00194 10.2047 9.02169 10.0484C9.04144 9.89205 9.02955 9.73336 8.98671 9.58165L8.89452 9.25238C9.0456 9.13711 9.20917 9.03839 9.38285 8.95858L9.5839 9.17021C9.69506 9.28744 9.82916 9.38086 9.97796 9.44473C10.1268 9.5086 10.2871 9.54157 10.4492 9.54162C10.6113 9.54168 10.7717 9.50882 10.9205 9.44505C11.0694 9.38128 11.2035 9.28796 11.3148 9.1708L11.5075 8.96745C11.6847 9.05021 11.8513 9.15366 12.0042 9.27366L11.9292 9.52372C11.8828 9.67803 11.8686 9.84014 11.8875 10.0001C11.9064 10.16 11.958 10.3145 12.0391 10.4539C12.1202 10.5934 12.2291 10.7149 12.3591 10.811C12.4891 10.9071 12.6376 10.9758 12.7952 11.0128L13.0028 11.0613C13.0267 11.2609 13.0287 11.4625 13.0088 11.6625L12.7352 11.7317C12.5815 11.7706 12.4371 11.8398 12.3107 11.935C12.1843 12.0303 12.0783 12.1497 11.999 12.2862C11.9197 12.4228 11.8686 12.5737 11.8489 12.7301C11.8292 12.8866 11.8411 13.0454 11.884 13.1971L11.9768 13.5258C11.8257 13.6411 11.6616 13.7404 11.4879 13.8202L11.2868 13.6086C11.1757 13.4914 11.0417 13.398 10.893 13.3342C10.7442 13.2703 10.5839 13.2373 10.4219 13.2372C10.2599 13.2371 10.0996 13.2699 9.95079 13.3335C9.80198 13.3972 9.66782 13.4904 9.55654 13.6074L9.36322 13.8108C9.18649 13.7278 9.01986 13.6251 8.86656 13.5045L8.9421 13.2551C8.9886 13.1007 9.00286 12.9386 8.98401 12.7785C8.96517 12.6185 8.91361 12.464 8.83251 12.3245C8.75141 12.185 8.64248 12.0634 8.51239 11.9673C8.38231 11.8711 8.23383 11.8024 8.07607 11.7654L7.86788 11.7169C7.84413 11.5175 7.84214 11.3161 7.86194 11.1163L8.13614 11.0465ZM11.0299 11.3894C11.0299 11.2326 10.9672 11.0823 10.8557 10.9714C10.7441 10.8605 10.5928 10.7982 10.4351 10.7982C10.2773 10.7982 10.126 10.8605 10.0145 10.9714C9.90293 11.0823 9.84026 11.2326 9.84026 11.3894C9.84026 11.5462 9.90293 11.6965 10.0145 11.8074C10.126 11.9183 10.2773 11.9805 10.4351 11.9805C10.5928 11.9805 10.7441 11.9183 10.8557 11.8074C10.9672 11.6965 11.0299 11.5462 11.0299 11.3894Z" fill="#003862"/>
</svg>
